<svg width="80" height="80" viewBox="0 0 80 80" fill="none" xmlns="http://www.w3.org/2000/svg">
<path fill-rule="evenodd" clip-rule="evenodd" d="M51.1222 47.5014L51.0115 47.6121C51.0115 47.6121 51.1591 47.5383 51.1222 47.5014ZM51.8235 48.2027C51.8235 51.5614 47.3944 52.2073 46.767 49.7159L46.7301 49.273C46.4348 48.3319 44.4417 47.5199 43.0946 46.8001C43.3345 45.7298 43.6297 45.453 44.1465 44.6963C42.301 45.1208 40.7139 46.4126 39.0346 47.2615C35.5098 49.0516 26.3564 53.3146 22.85 54.1266C23.5144 55.1231 25.3967 57.9835 25.6367 59.017C25.2491 59.5891 25.3783 59.4599 24.8431 59.9766C24.7693 60.0504 24.5478 60.235 24.474 60.3088C24.4187 60.3457 24.3264 60.4195 24.2895 60.4749L23.9019 60.7886C21.9089 59.4599 20.1003 57.9097 18.2364 56.3226C16.5571 54.8832 16.8708 55.2154 14.6932 55.4737C11.4636 55.8613 13.1061 54.4587 13.7704 53.4622L1.53516 48.2211C4.13723 44.3273 9.78429 48.7932 15.1545 48.9224C15.1545 43.4968 14.4902 43.6075 18.2918 41.5775C20.5063 42.7402 21.0046 44.1981 22.8316 45.4161C24.2526 44.4564 25.489 43.5153 26.9469 42.5556C27.7405 42.0389 28.2572 41.7067 29.0138 41.1346C29.8074 40.5256 30.1949 40.1012 31.2099 39.8428C30.8593 38.5141 29.4752 37.4068 28.7555 36.3549L30.5824 34.694C29.4198 33.882 28.3679 32.8486 27.3529 32.1658L25.6736 33.6237C24.8985 33.4207 9.08302 25.7436 8.10494 24.8394C6.57322 23.4184 7.99421 24.8578 7.82812 23.6952C7.82812 23.6952 8.38175 23.5291 6.77622 22.7171L1.84888 20.2811C4.4325 16.4426 6.35177 17.513 9.48902 18.5833L36.4325 26.9247C37.0784 26.5003 43.3714 20.1704 45.2537 25.8359C45.8074 27.4783 44.8846 27.8843 44.1095 29.0285C47.0807 29.0285 45.6966 30.6341 51.6943 26.1312C57.7843 21.5545 66.6055 15.5752 74.8362 15.3722C77.2168 15.3169 78.6747 14.8001 78.3425 17.4207C78.1764 18.7309 77.0507 20.1335 76.331 21.0931C72.7139 25.9097 69.5029 28.1612 64.4279 31.5383C62.9884 32.498 58.6886 35.6537 57.3783 36.0043L60.2941 41.8728C62.1949 41.393 66.1072 37.0747 67.8789 40.5256C69.5213 43.7183 65.9227 45.0839 62.6009 46.8371L67.842 57.3192C67.2699 58.0943 65.4244 59.4783 64.3541 59.7736L61.6228 57.2638C61.2722 58.3895 61.549 58.0943 60.4971 58.3895C59.316 56.6179 57.8581 55.9351 56.3818 54.4587C55.6251 53.7021 55.2929 53.2777 54.4071 52.5948C53.429 51.8382 52.9492 51.2661 52.1003 50.694C52.3402 49.7898 52.7093 49.4207 53.1522 48.5902L51.7497 48.2396L51.8235 48.2027Z" fill="#A9C63F"/>
</svg>
