<svg width="80" height="80" viewBox="0 0 80 80" fill="none" xmlns="http://www.w3.org/2000/svg">
<path d="M43.5 19V8H36.5V18.994L39.9933 17.5634L43.5 19Z" fill="#A9C63F"/>
<path d="M59.5 39V26.8696L39.4932 20L19.5 26.8696V38.9935L39.4932 28.742L59.5 39ZM51.1802 28.8208C51.226 28.7011 51.2963 28.5912 51.3872 28.4973C51.478 28.4034 51.5876 28.3274 51.7097 28.2737C51.8317 28.2199 51.9637 28.1895 52.0983 28.1841C52.2328 28.1787 52.3671 28.1985 52.4935 28.2423L55.3005 29.2069C55.549 29.2994 55.7495 29.4801 55.8592 29.7102C55.9689 29.9404 55.9792 30.202 55.8878 30.4392C55.7964 30.6764 55.6105 30.8706 55.3699 30.9802C55.1292 31.0899 54.8528 31.1064 54.5994 31.0263L51.7925 30.0591C51.538 29.9709 51.3309 29.7912 51.2162 29.5592C51.1015 29.3272 51.0886 29.0618 51.1802 28.8208ZM45.7931 26.7444C45.8389 26.6247 45.9092 26.5148 46.0001 26.4209C46.0909 26.3269 46.2005 26.2508 46.3224 26.197C46.4444 26.1431 46.5765 26.1125 46.711 26.107C46.8455 26.1014 46.9799 26.121 47.1064 26.1646L49.912 27.1292C50.0385 27.1727 50.1548 27.2393 50.254 27.3252C50.3533 27.4112 50.4337 27.5147 50.4906 27.63C50.5475 27.7453 50.5799 27.8701 50.5857 27.9972C50.5916 28.1243 50.571 28.2512 50.5249 28.3708C50.4789 28.4903 50.4084 28.6001 50.3175 28.6939C50.2265 28.7877 50.1169 28.8637 49.9949 28.9175C49.8729 28.9713 49.7408 29.0018 49.6063 29.0074C49.4718 29.0129 49.3375 28.9934 49.211 28.9499L46.4054 27.9853C46.1501 27.8974 45.9422 27.7173 45.8274 27.4846C45.7126 27.2519 45.7003 26.9857 45.7931 26.7444ZM27.0955 30.0591L24.2899 31.0237C24.1626 31.0711 24.0265 31.094 23.8896 31.0909C23.7528 31.0878 23.618 31.0589 23.4932 31.0058C23.3685 30.9527 23.2562 30.8765 23.163 30.7817C23.0699 30.687 22.9978 30.5755 22.951 30.454C22.9042 30.3325 22.8836 30.2034 22.8904 30.0742C22.8973 29.9451 22.9314 29.8185 22.9909 29.702C23.0503 29.5855 23.1339 29.4815 23.2366 29.396C23.3393 29.3105 23.459 29.2453 23.5888 29.2043L26.3958 28.2397C26.6486 28.162 26.9234 28.18 27.1623 28.2901C27.4013 28.4003 27.5856 28.5938 27.6764 28.8298C27.7672 29.0659 27.7573 29.3261 27.6489 29.5555C27.5406 29.7848 27.3421 29.9654 27.0955 30.0591ZM32.4839 27.9827L29.677 28.9473C29.5647 28.9855 29.4464 29.0051 29.3271 29.0054C29.0861 29.0055 28.8527 28.9252 28.6681 28.7788C28.4834 28.6324 28.3593 28.4291 28.3175 28.2048C28.2758 27.9805 28.319 27.7494 28.4397 27.5522C28.5603 27.355 28.7507 27.2043 28.9773 27.1266L31.7829 26.162C32.0384 26.0742 32.3204 26.0858 32.5668 26.1945C32.8132 26.3031 33.0039 26.4997 33.0969 26.7412C33.1898 26.9826 33.1775 27.2491 33.0625 27.4819C32.9476 27.7147 32.7395 27.8949 32.4839 27.9827Z" fill="#A9C63F"/>
<path d="M28.5 72H50.5C46.3271 72 42.7106 66 39.5 66C36.2894 66 32.6729 72 28.5 72Z" fill="#A9C63F"/>
<path d="M8.5 72H28.5C24.7065 72 21.4187 66 18.5 66C15.5813 66 12.2935 72 8.5 72Z" fill="#A9C63F"/>
<path d="M61 66C57.9354 66 54.4832 72 50.5 72H71.5C67.5168 72 64.0646 66 61 66Z" fill="#A9C63F"/>
<path d="M19.1 64.7595C21.1893 64.7595 23.0468 66.1655 24.8409 67.53C26.4436 68.7449 28.1003 70 29.5466 70C30.993 70 32.6469 68.7449 34.2523 67.53C35.6298 66.3149 37.2417 65.4128 38.9823 64.8827V39.381C38.9823 39.1054 39.0888 38.8412 39.2784 38.6463C39.468 38.4515 39.7251 38.342 39.9933 38.342C40.2614 38.342 40.5185 38.4515 40.7081 38.6463C40.8977 38.8412 41.0042 39.1054 41.0042 39.381V64.8786C42.7448 65.4086 44.3567 66.3108 45.7342 67.5259C47.3369 68.7408 48.9936 69.9958 50.4399 69.9958C51.8863 69.9958 53.5402 68.7408 55.1456 67.5259C56.9398 66.1655 58.7972 64.7553 60.8866 64.7553C61.0905 64.7586 61.294 64.7753 61.4958 64.8052L69.5 46.8754L41.0042 31V35.1974C41.0042 35.473 40.8977 35.7372 40.7081 35.9321C40.5185 36.1269 40.2614 36.2364 39.9933 36.2364C39.7251 36.2364 39.468 36.1269 39.2784 35.9321C39.0888 35.7372 38.9823 35.473 38.9823 35.1974V31L10.5 46.8754L18.7549 64.7872C18.8695 64.7789 18.9827 64.7595 19.1 64.7595Z" fill="#A9C63F"/>
</svg>
