<svg width="80" height="80" viewBox="0 0 80 80" fill="none" xmlns="http://www.w3.org/2000/svg">
<path fill-rule="evenodd" clip-rule="evenodd" d="M26.4062 15.4903L3.59375 4.25391V64.5077L26.4062 75.7441V15.4903ZM15 45.7537C15.6041 45.7537 16.0938 46.2434 16.0938 46.8475C16.0938 47.4516 15.6041 47.9412 15 47.9412C14.3959 47.9412 13.9062 47.4516 13.9062 46.8475C13.9062 46.2434 14.3959 45.7537 15 45.7537ZM40 21.9586C40.6041 21.9586 41.0938 22.4483 41.0938 23.0523C41.0938 23.6564 40.6041 24.1461 40 24.1461C39.3959 24.1461 38.9062 23.6564 38.9062 23.0523C38.9062 22.4483 39.3959 21.9586 40 21.9586ZM65 48.8255C65.6041 48.8255 66.0938 49.3152 66.0938 49.9192C66.0938 50.5233 65.6041 51.013 65 51.013C64.3959 51.013 63.9062 50.5233 63.9062 49.9192C63.9062 49.3152 64.3959 48.8255 65 48.8255ZM14.8711 54.8041C13.0958 51.6859 9.30234 47.1648 12.1933 44.2741C13.7406 42.7267 16.2728 42.7267 17.8203 44.2741C20.7358 47.1895 16.7559 52.0025 15.143 54.8047C15.0825 54.9094 14.9309 54.9089 14.8711 54.8041ZM39.8711 31.0089C39.9319 31.1156 40.083 31.1134 40.1428 31.0095C41.7558 28.2072 45.7356 23.3944 42.8202 20.4789C41.2727 18.9316 38.7406 18.9316 37.1933 20.4789C34.3023 23.3697 38.0958 27.8908 39.8711 31.0089ZM64.8711 57.8756C64.9308 57.9805 65.0825 57.9809 65.1428 57.8763C66.7558 55.0741 70.7356 50.2611 67.8202 47.3456C66.2727 45.7983 63.7406 45.7983 62.1933 47.3456C59.3023 50.2366 63.0958 54.7577 64.8711 57.8756ZM28.5938 15.4903V75.7441L51.4062 64.5077V4.25391L28.5938 15.4903ZM53.5938 4.25391V64.5077L76.4062 75.7441V15.4903L53.5938 4.25391ZM33.7553 45.1381C33.215 45.4047 32.5608 45.1828 32.2941 44.6425C32.0275 44.1022 32.2494 43.448 32.7897 43.1812L46.2447 36.5541C46.785 36.2875 47.4392 36.5094 47.7059 37.0497C47.9725 37.59 47.7506 38.2442 47.2103 38.5108L33.7553 45.1381ZM33.7553 53.3981C33.215 53.6647 32.5608 53.4428 32.2941 52.9025C32.0275 52.3622 32.2494 51.708 32.7897 51.4413L46.2447 44.8141C46.785 44.5475 47.4392 44.7694 47.7059 45.3097C47.9725 45.85 47.7506 46.5042 47.2103 46.7709L33.7553 53.3981ZM33.7553 61.6583C33.215 61.9248 32.5608 61.703 32.2941 61.1627C32.0275 60.6223 32.2494 59.9681 32.7897 59.7014L46.2447 53.0742C46.785 52.8077 47.4392 53.0295 47.7059 53.5698C47.9725 54.1102 47.7506 54.7644 47.2103 55.0311L33.7553 61.6583ZM22.2103 30.6C22.7506 30.8666 22.9725 31.5208 22.7059 32.0612C22.4394 32.6016 21.785 32.8234 21.2447 32.5569L7.78969 25.9297C7.24938 25.6631 7.0275 25.0089 7.29406 24.4684C7.56062 23.9281 8.215 23.7063 8.75531 23.9728L22.2103 30.6ZM72.2103 26.1125C72.7506 26.3791 72.9725 27.0333 72.7059 27.5737C72.4394 28.1141 71.7852 28.3359 71.2447 28.0694L57.7897 21.4422C57.2494 21.1756 57.0275 20.5214 57.2941 19.9811C57.5606 19.4408 58.215 19.2189 58.7553 19.4855L72.2103 26.1125ZM72.2103 35.0873C72.7506 35.3539 72.9725 36.0081 72.7059 36.5486C72.4394 37.0889 71.7852 37.3108 71.2447 37.0442L57.7897 30.417C57.2494 30.1505 57.0275 29.4962 57.2941 28.9558C57.5606 28.4155 58.215 28.1936 58.7553 28.4602L72.2103 35.0873Z" fill="#F7F6F2"/>
</svg>
