<svg width="80" height="80" viewBox="0 0 80 80" fill="none" xmlns="http://www.w3.org/2000/svg">
<path d="M5.4375 44.6498C30.9477 39.8598 37.0739 16.912 37.7422 15.5198C38.4108 14.1276 40.0817 14.4615 40.0817 14.4615C40.0817 14.4615 45.2408 14.4615 47.8098 14.4615L48.5513 13.3886C48.9248 12.8475 49.1166 12.8389 49.4861 12.8389H59.3448C59.7141 12.8389 59.9948 13.1437 60.102 13.5075L60.348 14.4614C62.6984 14.4614 67.7908 14.4614 68.1539 14.4614C69.4908 14.4614 70.0481 16.5778 70.0481 16.5778L75.1719 30.5026V48.7717C75.1719 51.5567 70.0481 55.567 70.0481 55.567C70.0481 55.567 6.44031 55.567 5.66016 55.567C4.88078 55.567 4.88078 54.4528 4.88078 54.4528C4.88078 54.4528 4.88078 45.8754 4.88078 45.2072C4.88078 44.5389 5.4375 44.6498 5.4375 44.6498ZM68.9402 44.4404C70.4206 44.4404 71.6203 43.2407 71.6203 41.7604C71.6203 40.2801 70.4206 39.0804 68.9402 39.0804C67.4605 39.0804 66.2602 40.2801 66.2602 41.7604C66.2602 43.2407 67.4605 44.4404 68.9402 44.4404ZM71.7187 28.6086C71.7187 28.6086 72.6092 28.0982 72.1639 26.9378L68.4878 17.3576C68.4878 17.3576 68.2653 16.912 67.5969 16.912H55.8434L57.9111 28.6084C63.458 28.6086 71.7187 28.6086 71.7187 28.6086ZM43.0959 44.4404C44.5763 44.4404 45.7759 43.2407 45.7759 41.7604C45.7759 40.2801 44.5763 39.0804 43.0959 39.0804C41.6161 39.0804 40.4159 40.2801 40.4159 41.7604C40.4159 43.2407 41.6161 44.4404 43.0959 44.4404ZM37.9656 27.9401C37.9656 27.9401 38.2998 28.6084 39.1906 28.6084C39.6378 28.6084 49.4875 28.6084 55.8605 28.6084L53.7934 16.912H41.5303C41.5303 16.912 40.6392 16.8009 40.5277 17.3576C40.4161 17.9145 37.9658 25.2668 37.9658 25.2668V27.9401H37.9656ZM28.7752 44.8676C30.5403 43.9384 32.2684 42.877 33.8991 41.6545V28.7328C33.8991 28.7328 32.3161 31.4226 28.7752 34.7157V44.8676ZM22.9823 47.4342C24.4608 46.8879 25.9569 46.2614 27.4386 45.5442V35.9057C26.1633 36.9889 24.6762 38.107 22.9823 39.1956V47.4342ZM17.397 49.1843C18.7627 48.8279 20.1894 48.4056 21.6456 47.9087V40.0203C20.3434 40.7912 18.9323 41.5382 17.397 42.234V49.1843ZM12.8295 50.207C13.9077 50.0046 15.0716 49.7593 16.2988 49.4609V42.7107C15.1975 43.175 14.0461 43.6153 12.8295 44.0181V50.207ZM8.7611 50.8432C9.6611 50.7318 10.7367 50.5778 11.9469 50.3668V44.2926C10.9248 44.609 9.86344 44.9003 8.7611 45.162V50.8432ZM5.82703 51.1234C5.82703 51.1234 6.68938 51.0815 8.14688 50.9165V45.3053C7.39031 45.4746 6.62219 45.6361 5.82703 45.7765V51.1234Z" fill="#A9C63F"/>
<path d="M44.5933 63.5956H63.1411V60.2458H69.9919V63.5956H75.1719V66.9297H33.0639C33.0639 66.9297 29.6672 62.0837 4.88078 62.0837V60.2456H44.5933V63.5956Z" fill="#A9C63F"/>
</svg>
