<svg width="85" height="80" viewBox="0 0 85 80" fill="none" xmlns="http://www.w3.org/2000/svg">
<path d="M62.1688 16.1713V14.7875C62.1659 13.7258 61.743 12.7085 60.9923 11.9578C60.2415 11.207 59.2242 10.7841 58.1625 10.7812C57.1003 10.7824 56.082 11.2049 55.3309 11.9559C54.5799 12.707 54.1574 13.7253 54.1563 14.7875V16.1063H50.0562V14.7875C50.0562 13.7261 49.635 12.708 48.8851 11.9569C48.1351 11.2057 47.1177 10.7829 46.0563 10.7812C44.9941 10.7826 43.9759 11.2051 43.2249 11.9561C42.4738 12.7071 42.0513 13.7254 42.05 14.7875V16.1063H37.95V14.7875C37.95 14.2618 37.8465 13.7413 37.6453 13.2556C37.4441 12.7699 37.1492 12.3286 36.7775 11.9569C36.4058 11.5851 35.9645 11.2903 35.4788 11.0891C34.9931 10.8879 34.4726 10.7844 33.9469 10.7844C33.4212 10.7844 32.9006 10.8879 32.4149 11.0891C31.9293 11.2903 31.488 11.5851 31.1162 11.9569C30.7445 12.3286 30.4496 12.7699 30.2485 13.2556C30.0473 13.7413 29.9437 14.2618 29.9437 14.7875V16.1063H25.8437V14.7875C25.8409 13.7258 25.418 12.7085 24.6672 11.9578C23.9165 11.207 22.8992 10.7841 21.8375 10.7812C20.7754 10.7826 19.7571 11.2051 19.0061 11.9561C18.2551 12.7071 17.8326 13.7254 17.8313 14.7875V16.1713C15.8879 16.4109 14.099 17.3521 12.8008 18.8179C11.5025 20.2837 10.7844 22.1732 10.7812 24.1313V61.1938C10.7837 63.3214 11.63 65.3611 13.1345 66.8655C14.6389 68.37 16.6786 69.2163 18.8063 69.2188H61.1938C63.3214 69.2163 65.3611 68.37 66.8655 66.8655C68.37 65.3611 69.2163 63.3214 69.2188 61.1938V24.1313C69.2156 22.1732 68.4975 20.2837 67.1992 18.8179C65.901 17.3521 64.1121 16.4109 62.1688 16.1713ZM56.3438 14.7875C56.3444 14.3053 56.5362 13.8431 56.8772 13.5022C57.2181 13.1612 57.6803 12.9694 58.1625 12.9688C58.644 12.9717 59.1048 13.1643 59.4453 13.5047C59.7857 13.8452 59.9783 14.306 59.9813 14.7875V19.6125C59.9813 20.0949 59.7896 20.5575 59.4486 20.8985C59.1075 21.2396 58.6449 21.4313 58.1625 21.4313C57.6801 21.4313 57.2175 21.2396 56.8764 20.8985C56.5354 20.5575 56.3438 20.0949 56.3438 19.6125V14.7875ZM44.2375 14.7875C44.238 14.3053 44.4298 13.843 44.7707 13.502C45.1117 13.161 45.574 12.9692 46.0563 12.9688C46.5376 12.9702 46.9987 13.1625 47.3384 13.5035C47.6782 13.8444 47.8689 14.3062 47.8687 14.7875V19.6125C47.8687 20.094 47.6775 20.5558 47.337 20.8963C46.9965 21.2368 46.5347 21.4281 46.0531 21.4281C45.5716 21.4281 45.1098 21.2368 44.7693 20.8963C44.4288 20.5558 44.2375 20.094 44.2375 19.6125V14.7875ZM32.1312 14.7875C32.1312 14.306 32.3225 13.8442 32.663 13.5037C33.0035 13.1632 33.4653 12.9719 33.9469 12.9719C34.4284 12.9719 34.8902 13.1632 35.2307 13.5037C35.5712 13.8442 35.7625 14.306 35.7625 14.7875V19.6125C35.7625 20.094 35.5712 20.5558 35.2307 20.8963C34.8902 21.2368 34.4284 21.4281 33.9469 21.4281C33.4653 21.4281 33.0035 21.2368 32.663 20.8963C32.3225 20.5558 32.1312 20.094 32.1312 19.6125V14.7875ZM20.0187 14.7875C20.0192 14.3053 20.211 13.843 20.552 13.502C20.893 13.161 21.3553 12.9692 21.8375 12.9688C22.319 12.9717 22.7798 13.1643 23.1203 13.5047C23.4607 13.8452 23.6533 14.306 23.6562 14.7875V19.6125C23.6562 20.0949 23.4646 20.5575 23.1236 20.8985C22.7825 21.2396 22.3199 21.4313 21.8375 21.4313C21.3551 21.4313 20.8925 21.2396 20.5515 20.8985C20.2104 20.5575 20.0187 20.0949 20.0187 19.6125V14.7875ZM17.8313 18.3819V19.6125C17.8313 20.675 18.2533 21.694 19.0047 22.4453C19.756 23.1967 20.775 23.6188 21.8375 23.6188C22.9 23.6188 23.919 23.1967 24.6703 22.4453C25.4217 21.694 25.8437 20.675 25.8437 19.6125V18.2938H29.9437V19.6125C29.9437 20.6742 30.3655 21.6924 31.1162 22.4431C31.867 23.1939 32.8852 23.6156 33.9469 23.6156C35.0086 23.6156 36.0268 23.1939 36.7775 22.4431C37.5282 21.6924 37.95 20.6742 37.95 19.6125V18.2938H42.05V19.6125C42.05 20.6742 42.4718 21.6924 43.2225 22.4431C43.9732 23.1939 44.9914 23.6156 46.0531 23.6156C47.1148 23.6156 48.133 23.1939 48.8838 22.4431C49.6345 21.6924 50.0562 20.6742 50.0562 19.6125V18.2938H54.1563V19.6125C54.1563 20.675 54.5783 21.694 55.3297 22.4453C56.081 23.1967 57.1 23.6188 58.1625 23.6188C59.225 23.6188 60.244 23.1967 60.9953 22.4453C61.7467 21.694 62.1688 20.675 62.1688 19.6125V18.3819C63.5272 18.613 64.7602 19.3168 65.6499 20.369C66.5397 21.4211 67.029 22.7539 67.0312 24.1319V27.4237H12.9688V24.1313C12.9712 22.7534 13.4605 21.4208 14.3503 20.3687C15.24 19.3167 16.4729 18.613 17.8313 18.3819ZM61.1938 67.0312H18.8063C17.2586 67.0294 15.7749 66.4138 14.6805 65.3195C13.5862 64.2251 12.9706 62.7414 12.9688 61.1938V29.6125H67.0312V61.1938C67.0294 62.7414 66.4138 64.2251 65.3195 65.3195C64.2251 66.4138 62.7414 67.0294 61.1938 67.0312Z" fill="white"/>
<path d="M26.0526 35.0845H21.6363C20.8675 35.0855 20.1305 35.3913 19.5868 35.935C19.0432 36.4786 18.7373 37.2157 18.7363 37.9845V42.4007C18.7373 43.1695 19.0432 43.9066 19.5868 44.4502C20.1305 44.9939 20.8675 45.2997 21.6363 45.3007H26.0526C26.8214 45.2997 27.5585 44.9939 28.1021 44.4502C28.6457 43.9066 28.9516 43.1695 28.9526 42.4007V37.9845C28.9516 37.2157 28.6457 36.4786 28.1021 35.935C27.5585 35.3913 26.8214 35.0855 26.0526 35.0845ZM26.7651 42.4007C26.7649 42.5896 26.6898 42.7708 26.5562 42.9044C26.4226 43.0379 26.2415 43.1131 26.0526 43.1132H21.6363C21.4474 43.1131 21.2663 43.0379 21.1327 42.9044C20.9991 42.7708 20.924 42.5896 20.9238 42.4007V37.9845C20.924 37.7956 20.9991 37.6144 21.1327 37.4808C21.2663 37.3473 21.4474 37.2721 21.6363 37.272H26.0526C26.2415 37.2721 26.4226 37.3473 26.5562 37.4808C26.6898 37.6144 26.7649 37.7956 26.7651 37.9845V42.4007Z" fill="white"/>
<path d="M42.2088 35.0845H37.7926C37.0238 35.0855 36.2867 35.3913 35.7431 35.935C35.1994 36.4786 34.8936 37.2157 34.8926 37.9845V42.4007C34.8936 43.1695 35.1994 43.9066 35.7431 44.4502C36.2867 44.9939 37.0238 45.2997 37.7926 45.3007H42.2088C42.9776 45.2997 43.7147 44.9939 44.2583 44.4502C44.802 43.9066 45.1078 43.1695 45.1088 42.4007V37.9845C45.1078 37.2157 44.802 36.4786 44.2583 35.935C43.7147 35.3913 42.9776 35.0855 42.2088 35.0845ZM42.9213 42.4007C42.9212 42.5896 42.846 42.7708 42.7125 42.9044C42.5789 43.0379 42.3977 43.1131 42.2088 43.1132H37.7926C37.6037 43.1131 37.4225 43.0379 37.2889 42.9044C37.1554 42.7708 37.0802 42.5896 37.0801 42.4007V37.9845C37.0802 37.7956 37.1554 37.6144 37.2889 37.4808C37.4225 37.3473 37.6037 37.2721 37.7926 37.272H42.2088C42.3977 37.2721 42.5789 37.3473 42.7125 37.4808C42.846 37.6144 42.9212 37.7956 42.9213 37.9845V42.4007Z" fill="white"/>
<path d="M59.781 36.5807L54.8748 41.4844L52.5273 39.1369C52.3209 38.9377 52.0446 38.8275 51.7579 38.8301C51.4711 38.8326 51.1968 38.9477 50.994 39.1506C50.7913 39.3534 50.6763 39.6277 50.6739 39.9145C50.6714 40.2013 50.7817 40.4776 50.981 40.6838L54.1016 43.8044C54.2032 43.9061 54.3237 43.9867 54.4564 44.0417C54.5892 44.0968 54.7314 44.1251 54.8751 44.1251C55.0187 44.1251 55.161 44.0968 55.2937 44.0417C55.4264 43.9867 55.547 43.9061 55.6485 43.8044L61.3279 38.1251C61.533 37.9199 61.6483 37.6417 61.6483 37.3516C61.6483 37.0615 61.533 36.7833 61.3279 36.5782C61.1228 36.3731 60.8445 36.2578 60.5544 36.2578C60.2644 36.2578 59.9861 36.3731 59.781 36.5782V36.5807Z" fill="white"/>
<path d="M26.0526 50.1506H21.6363C20.8675 50.1516 20.1305 50.4575 19.5868 51.0011C19.0432 51.5448 18.7373 52.2818 18.7363 53.0506V57.4669C18.7373 58.2357 19.0432 58.9728 19.5868 59.5164C20.1305 60.06 20.8675 60.3659 21.6363 60.3669H26.0526C26.8214 60.3659 27.5585 60.06 28.1021 59.5164C28.6457 58.9728 28.9516 58.2357 28.9526 57.4669V53.0506C28.9516 52.2818 28.6457 51.5448 28.1021 51.0011C27.5585 50.4575 26.8214 50.1516 26.0526 50.1506ZM26.7651 57.4669C26.7649 57.6558 26.6898 57.8369 26.5562 57.9705C26.4226 58.1041 26.2415 58.1792 26.0526 58.1794H21.6363C21.4474 58.1792 21.2663 58.1041 21.1327 57.9705C20.9991 57.8369 20.924 57.6558 20.9238 57.4669V53.0506C20.924 52.8617 20.9991 52.6806 21.1327 52.547C21.2663 52.4134 21.4474 52.3383 21.6363 52.3381H26.0526C26.2415 52.3383 26.4226 52.4134 26.5562 52.547C26.6898 52.6806 26.7649 52.8617 26.7651 53.0506V57.4669Z" fill="white"/>
<path d="M42.2088 50.1506H37.7926C37.0238 50.1516 36.2867 50.4575 35.7431 51.0011C35.1994 51.5448 34.8936 52.2818 34.8926 53.0506V57.4669C34.8936 58.2357 35.1994 58.9728 35.7431 59.5164C36.2867 60.06 37.0238 60.3659 37.7926 60.3669H42.2088C42.9776 60.3659 43.7147 60.06 44.2583 59.5164C44.802 58.9728 45.1078 58.2357 45.1088 57.4669V53.0506C45.1078 52.2818 44.802 51.5448 44.2583 51.0011C43.7147 50.4575 42.9776 50.1516 42.2088 50.1506ZM42.9213 57.4669C42.9212 57.6558 42.846 57.8369 42.7125 57.9705C42.5789 58.1041 42.3977 58.1792 42.2088 58.1794H37.7926C37.6037 58.1792 37.4225 58.1041 37.2889 57.9705C37.1554 57.8369 37.0802 57.6558 37.0801 57.4669V53.0506C37.0802 52.8617 37.1554 52.6806 37.2889 52.547C37.4225 52.4134 37.6037 52.3383 37.7926 52.3381H42.2088C42.3977 52.3383 42.5789 52.4134 42.7125 52.547C42.846 52.6806 42.9212 52.8617 42.9213 53.0506V57.4669Z" fill="white"/>
<path d="M58.3631 50.1506H53.9469C53.1781 50.1516 52.441 50.4575 51.8974 51.0011C51.3537 51.5448 51.0479 52.2818 51.0469 53.0506V57.4669C51.0479 58.2357 51.3537 58.9728 51.8974 59.5164C52.441 60.06 53.1781 60.3659 53.9469 60.3669H58.3631C59.1319 60.3659 59.869 60.06 60.4126 59.5164C60.9563 58.9728 61.2621 58.2357 61.2631 57.4669V53.0506C61.2621 52.2818 60.9563 51.5448 60.4126 51.0011C59.869 50.4575 59.1319 50.1516 58.3631 50.1506ZM59.0756 57.4669C59.0755 57.6558 59.0003 57.8369 58.8668 57.9705C58.7332 58.1041 58.552 58.1792 58.3631 58.1794H53.9469C53.758 58.1792 53.5768 58.1041 53.4432 57.9705C53.3097 57.8369 53.2345 57.6558 53.2344 57.4669V53.0506C53.2345 52.8617 53.3097 52.6806 53.4432 52.547C53.5768 52.4134 53.758 52.3383 53.9469 52.3381H58.3631C58.552 52.3383 58.7332 52.4134 58.8668 52.547C59.0003 52.6806 59.0755 52.8617 59.0756 53.0506V57.4669Z" fill="white"/>
</svg>
