<svg width="80" height="80" viewBox="0 0 80 80" fill="none" xmlns="http://www.w3.org/2000/svg">
<path fill-rule="evenodd" clip-rule="evenodd" d="M68.35 41.4183C68.0087 40.4058 67.0483 39.6713 65.9244 39.6713H52.4712C51.3473 39.6713 50.3868 40.4056 50.0456 41.4183H68.35ZM40.0001 12.4583C44.9448 12.4583 48.9533 20.2084 48.9533 25.1531C48.9533 30.0978 44.9448 34.1063 40.0001 34.1063C35.0554 34.1063 31.047 30.0978 31.047 25.1531C31.047 20.2084 35.0554 12.4583 40.0001 12.4583ZM35.7722 21.1786H44.2279C44.7458 21.1786 45.1654 20.7589 45.1654 20.2411C45.1654 19.7233 44.7458 19.3036 44.2279 19.3036H35.7722C35.2543 19.3036 34.8347 19.7233 34.8347 20.2411C34.8347 20.7589 35.2543 21.1786 35.7722 21.1786ZM29.6417 21.6711H2.39216C1.39529 21.6711 1.25591 23.1255 2.23451 23.3149L29.7458 28.6397C28.9676 26.3509 29.0325 24.1081 29.6417 21.6711ZM50.2544 28.6397L77.7656 23.3149C78.7444 23.1255 78.6048 21.6711 77.6079 21.6711H50.3584C50.9678 24.1081 51.0323 26.3509 50.2542 28.6397H50.2544ZM42.0906 10.9127L41.834 7.10657C41.8001 6.60345 41.4214 6.1897 40.9172 6.1897H39.0833C38.579 6.1897 38.2003 6.60345 38.1664 7.10657L37.9098 10.9127C39.2917 10.4734 40.709 10.4734 42.0908 10.9127H42.0906ZM49.0314 17.9817L57.3429 16.373C58.3217 16.1836 58.1822 14.7292 57.1853 14.7292H47.0697C47.8275 15.7222 48.4861 16.8308 49.0314 17.9817ZM32.9306 14.7294H22.815C21.8181 14.7294 21.6787 16.1836 22.6573 16.3731L30.9689 17.9819C31.5143 16.8309 32.1728 15.7224 32.9306 14.7294ZM11.5576 39.6713H33.4375C33.9197 39.6713 34.3139 40.0656 34.3139 40.5477V42.8983C34.3139 43.3803 33.9195 43.7749 33.4375 43.7749H11.5576C11.0756 43.7749 10.6812 43.3805 10.6812 42.8983V40.5477C10.6812 40.0656 11.0758 39.6713 11.5576 39.6713ZM5.50404 65.9302C5.11982 65.5844 5.08857 64.9924 5.4345 64.6081C5.78029 64.2239 6.37232 64.1927 6.75654 64.5386C9.61138 67.1056 13.9589 67.1055 16.8136 64.5386C17.1742 64.2141 17.7178 64.2216 18.069 64.5413C20.9033 67.1027 25.2678 67.1059 28.1231 64.5386C28.4837 64.2141 29.0273 64.2216 29.3786 64.5413C32.2128 67.1027 36.5773 67.1059 39.4326 64.5386C39.8168 64.1928 40.4089 64.2239 40.7547 64.6081C41.1004 64.9924 41.0693 65.5844 40.6851 65.9302C37.3301 68.9469 32.3215 69.1424 28.7492 66.4461C25.4054 68.9697 20.7833 68.9697 17.4395 66.4461C13.8675 69.142 8.86232 68.9475 5.50372 65.9302H5.50404ZM5.50404 71.4016C5.11982 71.0558 5.08857 70.4638 5.4345 70.0795C5.78029 69.6953 6.37232 69.6641 6.75654 70.01C9.61138 72.577 13.9589 72.577 16.8136 70.01C17.1742 69.6855 17.7178 69.693 18.069 70.0127C20.9033 72.5741 25.2679 72.5775 28.1231 70.01C28.4837 69.6855 29.0273 69.693 29.3786 70.0127C32.2128 72.5741 36.5773 72.5775 39.4326 70.01C39.8168 69.6642 40.4089 69.6953 40.7547 70.0795C41.1004 70.4638 41.0693 71.0558 40.6851 71.4016C37.33 74.4185 32.3214 74.6138 28.7492 71.9175C25.4054 74.4411 20.7833 74.4413 17.4395 71.9175C13.8675 74.6135 8.86232 74.4189 5.50372 71.4016H5.50404ZM10.1218 64.3403C12.0109 64.92 14.0783 64.4758 15.5603 63.1439C16.6309 62.1817 18.255 62.186 19.3234 63.1475C21.4618 65.072 24.7281 65.0689 26.87 63.1439C27.9406 62.1817 29.5645 62.186 30.6329 63.1475C31.7573 64.1594 33.2283 64.6664 34.7362 64.5792C36.4934 61.5347 37.642 58.6495 37.6525 55.3297C32.4506 55.3297 26.3478 53.6188 22.4975 49.7684C18.6472 53.6188 12.5445 55.3297 7.34247 55.3297C7.35263 58.5628 8.44201 61.3833 10.1218 64.3403ZM32.1968 52.8036C29.0473 52.0489 26.0033 50.6225 23.8234 48.4427L22.4976 47.1169L21.1718 48.4427C18.9918 50.6225 15.9479 52.0489 12.7984 52.8036V45.6499H32.197L32.1968 52.8036ZM46.4067 69.2517H71.9889C73.0236 69.2517 73.87 68.4053 73.87 67.3706V45.1742C73.87 44.1397 73.0236 43.2931 71.9889 43.2931H46.4067C45.3722 43.2931 44.5256 44.1395 44.5256 45.1742V67.3706C44.5256 68.4053 45.372 69.2517 46.4067 69.2517ZM47.6294 46.3969H70.7664V58.5299H47.6294V46.3969ZM69.2515 66.3795H64.2928C64.4928 64.1938 66.3443 62.4667 68.5801 62.4667H70.7664V64.8647C70.7664 65.6977 70.0847 66.3794 69.2515 66.3794V66.3795ZM49.144 66.3795C48.3109 66.3795 47.6294 65.6978 47.6294 64.8649V62.4669H49.8156C52.0512 62.4669 53.9028 64.1939 54.1029 66.3797H49.1442L49.144 66.3795ZM49.04 72.8728H52.0969C53.0959 72.8728 53.9236 72.1027 54.0161 71.1269H47.1206C47.2131 72.1028 48.0408 72.8728 49.0398 72.8728H49.04ZM65.4992 72.8728H68.5561C69.5551 72.8728 70.3828 72.1027 70.4753 71.1269H63.5798C63.6723 72.1028 64.5 72.8728 65.499 72.8728H65.4992Z" fill="#F7F6F2"/>
</svg>
