<svg width="80" height="80" viewBox="0 0 80 80" fill="none" xmlns="http://www.w3.org/2000/svg">
<path d="M58.7539 48.5547C57.8073 48.5557 56.8998 48.9322 56.2305 49.6016C55.5611 50.2709 55.1846 51.1784 55.1836 52.125C55.1836 53.0717 55.5597 53.9796 56.2291 54.649C56.8985 55.3185 57.8064 55.6945 58.7531 55.6945C59.6998 55.6945 60.6078 55.3185 61.2772 54.649C61.9466 53.9796 62.3227 53.0717 62.3227 52.125C62.3217 51.1787 61.9455 50.2713 61.2764 49.602C60.6074 48.9327 59.7003 48.5561 58.7539 48.5547ZM58.7539 53.8891C58.4049 53.8894 58.0637 53.7862 57.7734 53.5925C57.4831 53.3989 57.2568 53.1235 57.123 52.8012C56.9893 52.4788 56.9541 52.1241 57.022 51.7818C57.0899 51.4395 57.2578 51.125 57.5044 50.8782C57.7511 50.6313 58.0654 50.4631 58.4076 50.3949C58.7499 50.3268 59.1046 50.3616 59.4271 50.4951C59.7495 50.6285 60.0251 50.8546 60.219 51.1448C60.4129 51.4349 60.5164 51.776 60.5164 52.125C60.5164 52.5926 60.3308 53.041 60.0003 53.3718C59.6698 53.7026 59.2215 53.8887 58.7539 53.8891Z" fill="#A9C63F"/>
<path d="M21.2445 48.5547C20.2982 48.5561 19.391 48.9327 18.722 49.602C18.053 50.2713 17.6767 51.1787 17.6758 52.125C17.6758 53.0717 18.0519 53.9796 18.7213 54.649C19.3907 55.3185 20.2986 55.6945 21.2453 55.6945C22.192 55.6945 23.0999 55.3185 23.7694 54.649C24.4388 53.9796 24.8148 53.0717 24.8148 52.125C24.8138 51.1784 24.4373 50.2709 23.768 49.6016C23.0986 48.9322 22.1911 48.5557 21.2445 48.5547ZM21.2445 53.8891C20.8956 53.8891 20.5546 53.7856 20.2645 53.5918C19.9744 53.3979 19.7483 53.1224 19.6148 52.8001C19.4812 52.4777 19.4463 52.123 19.5144 51.7808C19.5824 51.4387 19.7504 51.1243 19.9972 50.8776C20.2439 50.6309 20.5582 50.4629 20.9004 50.3948C21.2426 50.3268 21.5973 50.3617 21.9196 50.4952C22.2419 50.6287 22.5175 50.8548 22.7113 51.1449C22.9051 51.435 23.0086 51.7761 23.0086 52.125C23.0086 52.3567 22.963 52.5861 22.8744 52.8001C22.7858 53.0142 22.6558 53.2087 22.492 53.3725C22.3282 53.5363 22.1337 53.6662 21.9197 53.7549C21.7056 53.8435 21.4762 53.8891 21.2445 53.8891Z" fill="#A9C63F"/>
<path d="M79.373 27.0437C79.2574 25.664 78.0949 23.0562 74.5199 23.0562H9.8668C7.25742 23.0562 5.80898 24.1905 5.30586 24.678C3.96836 25.978 2.7793 30.0374 1.77148 36.7452C1.00586 41.8421 0.623047 46.6593 0.623047 47.1952V50.053C0.623047 52.1687 2.37148 54.4171 5.61211 54.4171H17.0074C16.7948 54.0239 16.6376 53.6033 16.5402 53.1671C16.4641 52.8249 16.4258 52.4754 16.4262 52.1249C16.4262 50.8467 16.9339 49.6208 17.8378 48.717C18.7416 47.8131 19.9675 47.3054 21.2457 47.3054C22.5239 47.3054 23.7498 47.8131 24.6536 48.717C25.5575 49.6208 26.0652 50.8467 26.0652 52.1249C26.0656 52.4754 26.0273 52.8249 25.9512 53.1671C25.8538 53.6033 25.6966 54.0239 25.484 54.4171H54.5152C54.3026 54.0239 54.1454 53.6033 54.048 53.1671C53.9719 52.8249 53.9336 52.4754 53.934 52.1249C53.934 50.8467 54.4418 49.6208 55.3456 48.717C56.2494 47.8131 57.4753 47.3054 58.7535 47.3054C60.0317 47.3054 61.2576 47.8131 62.1614 48.717C63.0653 49.6208 63.573 50.8467 63.573 52.1249C63.5734 52.4754 63.5351 52.8249 63.459 53.1671C63.3616 53.6033 63.2044 54.0239 62.9918 54.4171H75.6371C78.3965 54.4171 79.3762 52.403 79.3762 50.678V27.0952C79.3762 27.078 79.3746 27.0608 79.373 27.0437ZM5.41836 47.189C5.28867 48.4687 4.56992 49.5249 1.87305 49.7374V47.1952C1.87305 47.1093 1.87773 46.9718 1.88867 46.789C2.73728 46.5576 3.60004 46.3817 4.47148 46.2624C4.59784 46.2466 4.72612 46.2595 4.84678 46.3002C4.96744 46.3409 5.07737 46.4083 5.16838 46.4973C5.25939 46.5864 5.32913 46.6948 5.37241 46.8146C5.41569 46.9343 5.4314 47.0623 5.41836 47.189ZM5.20742 38.4421C4.77773 42.1265 4.6293 44.2124 2.04805 44.8015C2.44336 40.5562 3.49336 31.9843 5.01523 27.7468C7.19961 28.3483 5.90586 32.4655 5.20742 38.4421ZM22.1855 35.3233C22.1855 43.2233 14.4637 45.4577 11.1621 46.053C10.9822 46.085 10.7974 46.0771 10.6208 46.0299C10.4443 45.9827 10.2802 45.8972 10.1403 45.7797C10.0003 45.6621 9.88794 45.5152 9.81098 45.3494C9.73403 45.1836 9.69441 45.003 9.69492 44.8202V28.7077C9.69492 28.3762 9.82662 28.0583 10.061 27.8238C10.2955 27.5894 10.6134 27.4577 10.9449 27.4577H20.9355C21.2671 27.4577 21.585 27.5894 21.8194 27.8238C22.0538 28.0583 22.1855 28.3762 22.1855 28.7077V35.3233ZM37.6184 40.7155H27.1949C26.8632 40.7157 26.545 40.5841 26.3103 40.3497C26.0756 40.1153 25.9436 39.7972 25.9434 39.4655V28.9968C25.9436 28.6651 26.0756 28.347 26.3103 28.1126C26.545 27.8782 26.8632 27.7466 27.1949 27.7468H37.6184V40.7155ZM49.9168 40.7155H38.8684V27.7468H49.9168V40.7155ZM62.2152 40.7155H51.1668V27.7468H62.2152V40.7155ZM75.1387 39.4655C75.1387 39.797 75.007 40.115 74.7726 40.3494C74.5381 40.5838 74.2202 40.7155 73.8887 40.7155H63.4652V27.7468H73.8887C74.2202 27.7468 74.5381 27.8785 74.7726 28.1129C75.007 28.3473 75.1387 28.6653 75.1387 28.9968V39.4655ZM78.1262 49.2077H77.0715C76.8423 49.2077 76.6153 49.1626 76.4036 49.0749C76.1918 48.9872 75.9994 48.8586 75.8373 48.6966C75.6752 48.5345 75.5467 48.3421 75.459 48.1303C75.3713 47.9186 75.3262 47.6916 75.3262 47.4624V46.4312C75.3262 45.6314 75.6062 44.8569 76.1177 44.2421C76.6292 43.6273 77.3398 43.211 78.1262 43.0655V49.2077Z" fill="#A9C63F"/>
</svg>
