<svg width="80" height="80" viewBox="0 0 80 80" fill="none" xmlns="http://www.w3.org/2000/svg">
<path d="M21.25 32.8125C17.3728 32.8125 14.2188 35.9666 14.2188 39.8438V58.9062C14.2188 62.7834 17.3728 65.9375 21.25 65.9375C25.1272 65.9375 28.2812 62.7834 28.2812 58.9062V39.8438C28.2812 35.9666 25.1272 32.8125 21.25 32.8125Z" fill="#F7F6F2"/>
<path d="M9.53125 39.8432C9.53125 39.1671 9.62047 38.514 9.73094 37.8691C6.90625 38.7821 4.84375 41.4059 4.84375 44.5307V54.2182C4.84375 57.343 6.90625 59.9668 9.73094 60.8798C9.62047 60.2349 9.53125 59.5818 9.53125 58.9057V39.8432Z" fill="#F7F6F2"/>
<path d="M58.75 32.8125C54.8728 32.8125 51.7188 35.9666 51.7188 39.8438V58.9062C51.7188 62.7834 54.8728 65.9375 58.75 65.9375C59.4547 65.9375 60.1222 65.8019 60.7644 65.6081C59.8919 68.5002 57.2352 70.625 54.0625 70.625H46.5995C45.6287 67.9028 43.0516 65.9375 40 65.9375C36.1228 65.9375 32.9688 69.0916 32.9688 72.9688C32.9688 76.8459 36.1228 80 40 80C43.0516 80 45.6287 78.0347 46.5995 75.3125H54.0625C60.5239 75.3125 65.7812 70.0552 65.7812 63.5938V58.9062V39.8438C65.7812 35.9666 62.6272 32.8125 58.75 32.8125Z" fill="#F7F6F2"/>
<path d="M70.2695 37.8691C70.38 38.514 70.4692 39.1671 70.4692 39.8432V58.9057C70.4692 59.5818 70.38 60.2349 70.2695 60.8798C73.0942 59.9668 75.1567 57.343 75.1567 54.2182V44.5307C75.1567 41.4059 73.0942 38.7821 70.2695 37.8691Z" fill="#F7F6F2"/>
<path d="M40 0C20.6138 0 4.84375 15.77 4.84375 35.1563V35.2161C6.24016 34.1589 7.85578 33.3853 9.63859 33.0389C10.7341 17.2267 23.9147 4.6875 40 4.6875C56.0853 4.6875 69.2659 17.2267 70.3614 33.0388C72.1441 33.3852 73.7597 34.1589 75.1562 35.2159V35.1563C75.1562 15.77 59.3862 0 40 0Z" fill="#F7F6F2"/>
</svg>
