<svg width="80" height="80" viewBox="0 0 80 80" fill="none" xmlns="http://www.w3.org/2000/svg">
<g clip-path="url(#clip0_2010_3346)">
<path d="M68.8892 45.456C72.7336 45.456 75.8612 48.5836 75.8612 52.428C75.8612 56.2724 72.7336 59.4 68.8892 59.4C65.0451 59.4 61.9172 56.2724 61.9172 52.428C61.9172 50.4356 62.7587 48.6369 64.1036 47.3652L62.1203 43.6207C59.4814 45.6519 57.7793 48.8404 57.7793 52.428C57.7793 58.5641 62.7534 63.5384 68.8894 63.5384C75.0255 63.5384 79.9998 58.5641 79.9998 52.428C79.9998 46.2922 75.0258 41.3179 68.8894 41.3179C67.6721 41.3179 66.5015 41.5166 65.4055 41.8784L67.3879 45.621C67.8715 45.5141 68.3735 45.456 68.8892 45.456Z" fill="#A9C63F"/>
<path d="M17.6426 49.9957C17.7125 50.183 17.7737 50.3743 17.8276 50.5688H22.0617C21.8797 49.4893 21.5432 48.463 21.0737 47.5132L17.6426 49.9957Z" fill="#A9C63F"/>
<path d="M11.1101 59.3998C7.26601 59.3998 4.13813 56.2721 4.13813 52.4278C4.13813 48.5834 7.26601 45.4557 11.1101 45.4557C12.7546 45.4557 14.2671 46.0295 15.4605 46.9854L18.893 44.5017C16.8883 42.5331 14.1418 41.3174 11.1101 41.3174C4.97407 41.3174 0 46.2917 0 52.4278C0 58.5638 4.97407 63.5381 11.1101 63.5381C16.6125 63.5381 21.1775 59.5376 22.0625 54.2872H17.8284C17.0124 57.2313 14.3105 59.3998 11.1101 59.3998Z" fill="#A9C63F"/>
<path d="M10.4284 51.4865C10.0201 51.7819 9.84883 52.3067 10.0041 52.7859C10.1593 53.2651 10.6058 53.5898 11.1096 53.5898H25.1313L25.3458 54.287L25.564 54.9963C25.9716 56.3207 27.1952 57.2245 28.581 57.2245H37.7776L53.1732 45.7762C53.2422 45.6891 53.3196 45.608 53.4056 45.535L57.6207 41.9535H49.5594V41.2446H58.455L59.7439 40.1496H45.7203V39.4407H60.5589V39.4572L60.6591 39.3722L67.8623 52.9716C68.0708 53.3653 68.4738 53.59 68.8902 53.59C69.0736 53.59 69.26 53.5463 69.4334 53.4545C70.0002 53.1542 70.2166 52.451 69.9161 51.8837L62.7544 38.3626L63.5367 38.3499L71.9056 38.2118C72.2538 38.206 72.5436 37.9425 72.5819 37.5964L72.7274 36.2866C72.7418 36.1569 72.7193 36.0258 72.6623 35.9083L68.0524 26.4012L58.8982 16.6176C58.7545 16.4642 58.5298 16.4187 58.3379 16.504L57.029 17.0857C56.7673 17.2019 56.6595 17.5158 56.7942 17.7684L60.5373 24.7867L57.6704 27.2753L57.1298 27.7445L55.1351 23.9784C54.9857 23.6968 54.7275 23.4888 54.4205 23.403L50.6338 22.3463C50.0165 22.1736 49.3749 22.535 49.2022 23.1532C49.0297 23.7714 49.3911 24.4123 50.0093 24.5848L53.3152 25.5074L54.8769 28.4561H54.0879H49.7344L40.4895 26.0398C39.8039 25.8606 39.0742 26.0129 38.5176 26.4514L31.1618 32.2438C30.4119 32.8343 29.4925 33.1694 28.5383 33.1999L20.5435 33.455C19.6155 33.4845 18.731 33.0616 18.1764 32.3172C17.8118 31.828 17.367 31.2586 16.9299 30.7101C15.7983 29.2899 14.0723 28.4747 12.2565 28.5082L2.79175 28.6818C2.51217 28.6869 2.28419 28.9076 2.27024 29.187L2.19402 30.7108C2.18402 30.9121 2.2886 31.1017 2.46407 31.2007L21.5525 41.9597L21.7078 42.4647L21.9244 43.1687L10.4284 51.4865ZM66.79 27.3406L70.7532 35.6189C70.7532 35.6189 66.8635 33.5347 65.704 31.098C64.5443 28.6615 66.79 27.3406 66.79 27.3406ZM14.6976 51.266L22.6464 45.5148L22.863 46.2187L24.2017 50.569L24.4162 51.2662L14.6976 51.266Z" fill="#A9C63F"/>
<path d="M46.9067 57.2248C47.0636 57.2248 47.2147 57.1648 47.3285 57.057L52.2733 52.3838C52.4149 52.2502 52.4999 52.0673 52.5108 51.873L52.7588 47.5327L39.7246 57.2248H46.9067Z" fill="#A9C63F"/>
</g>
<defs>
<clipPath id="clip0_2010_3346">
<rect width="80" height="80" fill="white"/>
</clipPath>
</defs>
</svg>
