<svg width="80" height="80" viewBox="0 0 80 80" fill="none" xmlns="http://www.w3.org/2000/svg">
<path d="M63.8223 71.1451V74.2696C63.8223 74.4699 63.8618 74.6683 63.9388 74.8534C64.0157 75.0384 64.1284 75.2064 64.2704 75.3477C64.4124 75.4891 64.581 75.601 64.7664 75.677C64.9518 75.7529 65.1504 75.7916 65.3508 75.7906H71.2008C71.6042 75.7906 71.991 75.6303 72.2763 75.3451C72.5615 75.0598 72.7218 74.673 72.7218 74.2696V68.2471C71.7562 69.2173 70.5993 69.9759 69.3246 70.4749C68.0499 70.9738 66.6854 71.202 65.3178 71.1451H63.8223Z" fill="#A9C63F"/>
<path d="M7.19727 68.1592V74.2702C7.19727 74.6736 7.35751 75.0604 7.64276 75.3457C7.928 75.6309 8.31487 75.7912 8.71827 75.7912H14.5683C14.9717 75.7912 15.3585 75.6309 15.6438 75.3457C15.929 75.0604 16.0893 74.6736 16.0893 74.2702V71.1457H14.6868C13.2982 71.2056 11.9127 70.9704 10.6218 70.4556C9.33077 69.9408 8.16361 69.1581 7.19727 68.1592Z" fill="#A9C63F"/>
<path d="M7.24219 62.0673C7.24219 66.3783 10.2422 68.8908 14.6882 68.8908H65.3147C69.7547 68.8908 72.7607 66.3783 72.7607 62.0673V60.8223H7.24219V62.0673Z" fill="#A9C63F"/>
<path d="M73.451 34.3184L69.701 33.6674C69.4015 33.6151 69.0931 33.6654 68.8258 33.8102C68.5585 33.9551 68.3478 34.1859 68.2281 34.4654L67.0611 37.1039L66.587 36.3809L63.2991 28.6184C62.7687 27.3591 61.9266 26.2555 60.852 25.4116C59.7774 24.5676 58.5056 24.0111 57.1566 23.7944C51.4792 22.9324 45.7434 22.5136 40.001 22.5419C34.2591 22.515 28.5238 22.9353 22.847 23.7989C21.4967 24.0145 20.2234 24.5706 19.1475 25.4146C18.0715 26.2586 17.2282 27.3627 16.697 28.6229L13.4165 36.3734L12.95 37.0859L11.7755 34.4579C11.6558 34.1784 11.4451 33.9476 11.1778 33.8027C10.9105 33.6579 10.6021 33.6076 10.3025 33.6599L6.55105 34.3184C6.20449 34.3744 5.88925 34.5521 5.6619 34.8196C5.43454 35.0871 5.30998 35.4268 5.31055 35.7779V36.5144C5.31062 36.8524 5.42624 37.1802 5.63822 37.4435C5.85021 37.7068 6.14583 37.8897 6.47605 37.9619L11.612 39.1364L9.15205 42.8864C7.90708 44.785 7.24392 47.006 7.24405 49.2764V58.5764H72.7611V49.2764C72.7606 47.0058 72.097 44.7849 70.8516 42.8864L68.3826 39.1184L73.5276 37.9589C73.8578 37.8867 74.1534 37.7038 74.3654 37.4405C74.5774 37.1772 74.693 36.8494 74.693 36.5114V35.7749C74.6929 35.4241 74.5677 35.0849 74.3402 34.818C74.1126 34.5511 73.7974 34.374 73.451 34.3184ZM18.7745 29.5019C19.1535 28.5918 19.7594 27.7939 20.5343 27.1845C21.3092 26.575 22.2273 26.1742 23.201 26.0204C28.7608 25.1765 34.3777 24.7658 40.001 24.7919C45.6244 24.7658 51.2413 25.1765 56.8011 26.0204C57.7741 26.1747 58.6914 26.5755 59.4657 27.1847C60.24 27.7938 60.8455 28.591 61.2245 29.5004L63.7521 35.4614H16.247L18.7745 29.5019ZM14.003 51.2519C13.5621 51.1876 13.1506 50.9924 12.8219 50.6915C12.4932 50.3906 12.2625 49.9979 12.1595 49.5644C12.024 49.0587 11.9708 48.5345 12.002 48.0119C12.1235 46.6619 12.548 45.9974 13.406 45.9974C13.406 45.9974 19.289 46.3634 20.084 46.6079C20.879 46.8524 23.93 52.6529 23.93 52.6529L14.003 51.2519ZM51.689 53.5019L39.929 54.1739L28.313 53.5184L25.3505 47.2349C25.3505 47.2349 35.786 48.1439 39.9995 48.1439C44.213 48.1439 54.6515 47.2349 54.6515 47.2349L51.689 53.5019ZM67.8411 49.5704C67.7381 50.0039 67.5074 50.3966 67.1787 50.6975C66.85 50.9984 66.4385 51.1936 65.9976 51.2579L56.0706 52.6589C56.0706 52.6589 59.1231 46.8584 59.9181 46.6139C60.7131 46.3694 66.5946 46.0034 66.5946 46.0034C67.4541 46.0034 67.8771 46.6739 67.9986 48.0179C68.0298 48.5405 67.9767 49.0647 67.8411 49.5704Z" fill="#A9C63F"/>
</svg>
